<svg width="31" height="31" viewBox="0 0 31 31" fill="none" xmlns="http://www.w3.org/2000/svg">
<path d="M14.0883 2.17902H4.08826C2.71326 2.17902 1.58826 3.30402 1.58826 4.67902V19.679L5.33826 15.929H11.5883V14.679C11.5883 11.929 13.8258 9.67902 16.5883 9.67902V4.67902C16.5883 3.30402 15.4633 2.17902 14.0883 2.17902ZM14.0883 5.92902H12.2133C11.7883 7.41652 11.0133 8.80402 9.93826 10.004L9.91326 10.029L11.4883 11.5915L11.0258 12.854L9.08826 10.929L5.96326 14.054L5.10076 13.1415L8.26326 10.029C7.49941 9.1831 6.87494 8.22108 6.41326 7.17902H7.65076C8.03826 7.92902 8.51326 8.64152 9.08826 9.27902C9.96319 8.30725 10.6309 7.1674 11.0508 5.92902H4.08826V4.67902H8.46326V3.42902H9.71326V4.67902H14.0883V5.92902ZM26.5883 12.179H16.5883C15.2133 12.179 14.0883 13.304 14.0883 14.679V23.429C14.0883 24.804 15.2133 25.929 16.5883 25.929H25.3383L29.0883 29.679V14.679C29.0883 13.304 27.9633 12.179 26.5883 12.179ZM24.8758 24.679L23.8133 21.8665H19.3633L18.3133 24.679H16.4383L20.6508 13.429H22.5258L26.7508 24.679H24.8758ZM21.5883 15.929L23.1133 19.9915H20.0758L21.5883 15.929Z" fill="#1E2957"/>
</svg>
