<svg width="33" height="33" viewBox="0 0 33 33" fill="none" xmlns="http://www.w3.org/2000/svg">
<path d="M10.7382 9.89782C10.7382 10.5343 10.4854 11.1448 10.0353 11.5949C9.5852 12.045 8.97475 12.2978 8.33823 12.2978C7.70171 12.2978 7.09126 12.045 6.64118 11.5949C6.19109 11.1448 5.93823 10.5343 5.93823 9.89782C5.93823 9.2613 6.19109 8.65085 6.64118 8.20076C7.09126 7.75067 7.70171 7.49782 8.33823 7.49782C8.97475 7.49782 9.5852 7.75067 10.0353 8.20076C10.4854 8.65085 10.7382 9.2613 10.7382 9.89782ZM10.7382 16.2978C10.7382 16.9343 10.4854 17.5448 10.0353 17.9949C9.5852 18.445 8.97475 18.6978 8.33823 18.6978C7.70171 18.6978 7.09126 18.445 6.64118 17.9949C6.19109 17.5448 5.93823 16.9343 5.93823 16.2978C5.93823 15.6613 6.19109 15.0508 6.64118 14.6008C7.09126 14.1507 7.70171 13.8978 8.33823 13.8978C8.97475 13.8978 9.5852 14.1507 10.0353 14.6008C10.4854 15.0508 10.7382 15.6613 10.7382 16.2978ZM10.7382 22.6978C10.7382 23.3343 10.4854 23.9448 10.0353 24.3949C9.5852 24.845 8.97475 25.0978 8.33823 25.0978C7.70171 25.0978 7.09126 24.845 6.64118 24.3949C6.19109 23.9448 5.93823 23.3343 5.93823 22.6978C5.93823 22.0613 6.19109 21.4508 6.64118 21.0008C7.09126 20.5507 7.70171 20.2978 8.33823 20.2978C8.97475 20.2978 9.5852 20.5507 10.0353 21.0008C10.4854 21.4508 10.7382 22.0613 10.7382 22.6978Z" fill="white"/>
<path fill-rule="evenodd" clip-rule="evenodd" d="M12.3383 9.89782C12.3383 9.47347 12.5068 9.06651 12.8069 8.76645C13.1069 8.46639 13.5139 8.29782 13.9383 8.29782H25.1383C25.5626 8.29782 25.9696 8.46639 26.2696 8.76645C26.5697 9.06651 26.7383 9.47347 26.7383 9.89782C26.7383 10.3222 26.5697 10.7291 26.2696 11.0292C25.9696 11.3292 25.5626 11.4978 25.1383 11.4978H13.9383C13.5139 11.4978 13.1069 11.3292 12.8069 11.0292C12.5068 10.7291 12.3383 10.3222 12.3383 9.89782ZM12.3383 16.2978C12.3383 15.8735 12.5068 15.4665 12.8069 15.1665C13.1069 14.8664 13.5139 14.6978 13.9383 14.6978H25.1383C25.5626 14.6978 25.9696 14.8664 26.2696 15.1665C26.5697 15.4665 26.7383 15.8735 26.7383 16.2978C26.7383 16.7222 26.5697 17.1291 26.2696 17.4292C25.9696 17.7292 25.5626 17.8978 25.1383 17.8978H13.9383C13.5139 17.8978 13.1069 17.7292 12.8069 17.4292C12.5068 17.1291 12.3383 16.7222 12.3383 16.2978ZM12.3383 22.6978C12.3383 22.2735 12.5068 21.8665 12.8069 21.5665C13.1069 21.2664 13.5139 21.0978 13.9383 21.0978H25.1383C25.5626 21.0978 25.9696 21.2664 26.2696 21.5665C26.5697 21.8665 26.7383 22.2735 26.7383 22.6978C26.7383 23.1222 26.5697 23.5291 26.2696 23.8292C25.9696 24.1292 25.5626 24.2978 25.1383 24.2978H13.9383C13.5139 24.2978 13.1069 24.1292 12.8069 23.8292C12.5068 23.5291 12.3383 23.1222 12.3383 22.6978Z" fill="white"/>
</svg>
