<svg width="31" height="26" viewBox="0 0 31 26" fill="none" xmlns="http://www.w3.org/2000/svg">
<path d="M8.28784 25.1413L0.0378418 12.6718L8.28784 0.202271H30.0378V25.1413H8.28784ZM10.8712 14.4532C11.3434 14.4532 11.7395 14.2822 12.0595 13.9401C12.3795 13.5981 12.539 13.1753 12.5378 12.6718C12.5367 12.1683 12.3767 11.7455 12.0578 11.4035C11.739 11.0615 11.3434 10.8904 10.8712 10.8904C10.399 10.8904 10.0034 11.0615 9.68451 11.4035C9.36562 11.7455 9.20562 12.1683 9.20451 12.6718C9.2034 13.1753 9.3634 13.5987 9.68451 13.9419C10.0056 14.2851 10.4012 14.4555 10.8712 14.4532ZM16.7045 14.4532C17.1767 14.4532 17.5728 14.2822 17.8928 13.9401C18.2128 13.5981 18.3723 13.1753 18.3712 12.6718C18.3701 12.1683 18.2101 11.7455 17.8912 11.4035C17.5723 11.0615 17.1767 10.8904 16.7045 10.8904C16.2323 10.8904 15.8367 11.0615 15.5178 11.4035C15.199 11.7455 15.039 12.1683 15.0378 12.6718C15.0367 13.1753 15.1967 13.5987 15.5178 13.9419C15.839 14.2851 16.2345 14.4555 16.7045 14.4532ZM22.5378 14.4532C23.0101 14.4532 23.4062 14.2822 23.7262 13.9401C24.0462 13.5981 24.2056 13.1753 24.2045 12.6718C24.2034 12.1683 24.0434 11.7455 23.7245 11.4035C23.4056 11.0615 23.0101 10.8904 22.5378 10.8904C22.0656 10.8904 21.6701 11.0615 21.3512 11.4035C21.0323 11.7455 20.8723 12.1683 20.8712 12.6718C20.8701 13.1753 21.0301 13.5987 21.3512 13.9419C21.6723 14.2851 22.0678 14.4555 22.5378 14.4532Z" fill="white"/>
</svg>
