<svg width="21" height="21" viewBox="0 0 21 21" fill="none" xmlns="http://www.w3.org/2000/svg">
<path d="M1.62275 0.720642H8.76561C9.14449 0.720642 9.50786 0.931356 9.77576 1.30643C10.0437 1.6815 10.1942 2.19021 10.1942 2.72064C10.1942 3.25108 10.0437 3.75978 9.77576 4.13486C9.50786 4.50993 9.14449 4.72064 8.76561 4.72064H1.62275C1.24387 4.72064 0.880511 4.50993 0.612602 4.13486C0.344693 3.75978 0.194183 3.25108 0.194183 2.72064C0.194183 2.19021 0.344693 1.6815 0.612602 1.30643C0.880511 0.931356 1.24387 0.720642 1.62275 0.720642ZM11.6228 16.7206H18.7656C19.1445 16.7206 19.5079 16.9314 19.7758 17.3064C20.0437 17.6815 20.1942 18.1902 20.1942 18.7206C20.1942 19.2511 20.0437 19.7598 19.7758 20.1349C19.5079 20.5099 19.1445 20.7206 18.7656 20.7206H11.6228C11.2439 20.7206 10.8805 20.5099 10.6126 20.1349C10.3447 19.7598 10.1942 19.2511 10.1942 18.7206C10.1942 18.1902 10.3447 17.6815 10.6126 17.3064C10.8805 16.9314 11.2439 16.7206 11.6228 16.7206ZM1.62275 8.72064H18.7656C19.1445 8.72064 19.5079 8.93136 19.7758 9.30643C20.0437 9.6815 20.1942 10.1902 20.1942 10.7206C20.1942 11.2511 20.0437 11.7598 19.7758 12.1349C19.5079 12.5099 19.1445 12.7206 18.7656 12.7206H1.62275C1.24387 12.7206 0.880511 12.5099 0.612602 12.1349C0.344693 11.7598 0.194183 11.2511 0.194183 10.7206C0.194183 10.1902 0.344693 9.6815 0.612602 9.30643C0.880511 8.93136 1.24387 8.72064 1.62275 8.72064Z" fill="white"/>
</svg>
