<svg width="27" height="27" viewBox="0 0 27 27" fill="none" xmlns="http://www.w3.org/2000/svg">
<path d="M13.3383 0.172821C9.87036 0.214899 6.55636 1.61122 4.10401 4.06357C1.65165 6.51592 0.255335 9.82993 0.213257 13.2978C0.255335 16.7657 1.65165 20.0797 4.10401 22.5321C6.55636 24.9844 9.87036 26.3807 13.3383 26.4228C16.8062 26.3807 20.1202 24.9844 22.5725 22.5321C25.0249 20.0797 26.4212 16.7657 26.4633 13.2978C26.4212 9.82993 25.0249 6.51592 22.5725 4.06357C20.1202 1.61122 16.8062 0.214899 13.3383 0.172821ZM20.8383 14.2353H14.2758V20.7978H12.4008V14.2353H5.83826V12.3603H12.4008V5.79782H14.2758V12.3603H20.8383V14.2353Z" fill="white"/>
</svg>
