<svg width="31" height="30" viewBox="0 0 31 30" fill="none" xmlns="http://www.w3.org/2000/svg">
<path d="M16.655 0.000246878C17.096 0.000246878 17.4905 0.274747 17.639 0.685747L18.698 3.62125C19.0775 3.71575 19.403 3.81025 19.679 3.90925C19.9805 4.01725 20.369 4.18075 20.849 4.40425L23.315 3.09925C23.5163 2.99261 23.7468 2.95411 23.9718 2.98954C24.1968 3.02497 24.4042 3.13241 24.563 3.29575L26.732 5.53825C27.02 5.83675 27.101 6.27325 26.939 6.65425L25.7825 9.36475C25.9745 9.71725 26.1275 10.0187 26.2445 10.2707C26.3705 10.5452 26.5265 10.9232 26.7125 11.4107L29.408 12.5657C29.813 12.7382 30.0635 13.1432 30.0365 13.5767L29.8385 16.6892C29.825 16.8915 29.7524 17.0852 29.6297 17.2466C29.5071 17.4079 29.3398 17.5296 29.1485 17.5967L26.5955 18.5042C26.522 18.8567 26.4455 19.1582 26.3645 19.4132C26.2339 19.8071 26.0847 20.1945 25.9175 20.5742L27.2 23.4092C27.2905 23.6084 27.3149 23.8314 27.2696 24.0454C27.2242 24.2595 27.1115 24.4534 26.948 24.5987L24.509 26.7767C24.3484 26.9196 24.148 27.0099 23.9346 27.0356C23.7212 27.0614 23.505 27.0213 23.315 26.9207L20.801 25.5887C20.4077 25.797 20.0019 25.9809 19.586 26.1392L18.488 26.5502L17.513 29.2502C17.4408 29.448 17.3104 29.6192 17.1391 29.7416C16.9678 29.8639 16.7635 29.9316 16.553 29.9357L13.703 30.0002C13.487 30.0059 13.2745 29.9445 13.0948 29.8244C12.9151 29.7043 12.777 29.5315 12.6995 29.3297L11.5505 26.2892C11.1585 26.1553 10.7703 26.0102 10.3865 25.8542C10.0726 25.7184 9.76342 25.5718 9.45953 25.4147L6.60953 26.6327C6.42174 26.7129 6.21471 26.7367 6.01364 26.7012C5.81257 26.6658 5.62613 26.5727 5.47703 26.4332L3.36803 24.4547C3.21101 24.3081 3.10407 24.1158 3.06235 23.905C3.02063 23.6942 3.04623 23.4757 3.13553 23.2802L4.36103 20.6102C4.19804 20.294 4.04694 19.9718 3.90803 19.6442C3.74588 19.2433 3.59581 18.8377 3.45803 18.4277L0.773027 17.6102C0.554778 17.5443 0.364418 17.4081 0.231511 17.2228C0.0986045 17.0376 0.0305886 16.8136 0.0380268 16.5857L0.143027 13.7042C0.150501 13.5162 0.209232 13.3339 0.312869 13.1768C0.416506 13.0198 0.561104 12.894 0.731027 12.8132L3.54803 11.4602C3.67853 10.9817 3.79253 10.6097 3.89303 10.3382C4.03454 9.97562 4.19169 9.61928 4.36403 9.27025L3.14303 6.69025C3.05037 6.49432 3.02223 6.27406 3.06266 6.06113C3.10309 5.8482 3.21 5.65357 3.36803 5.50525L5.47403 3.51625C5.62166 3.37701 5.80638 3.28339 6.00597 3.24667C6.20555 3.20994 6.4115 3.23168 6.59903 3.30925L9.44603 4.48525C9.76103 4.27525 10.046 4.10575 10.304 3.96925C10.6115 3.80575 11.0225 3.63475 11.54 3.45025L12.53 0.688747C12.6032 0.48665 12.737 0.312069 12.9131 0.188844C13.0892 0.0656181 13.2991 -0.000245235 13.514 0.000246878H16.655ZM15.074 10.5287C12.5735 10.5287 10.547 12.5312 10.547 15.0032C10.547 17.4752 12.5735 19.4792 15.074 19.4792C17.573 19.4792 19.5995 17.4752 19.5995 15.0032C19.5995 12.5312 17.5745 10.5287 15.074 10.5287Z" fill="white"/>
</svg>
