<svg width="31" height="31" viewBox="0 0 31 31" fill="none" xmlns="http://www.w3.org/2000/svg">
<path d="M15.3383 26.7254L13.5258 25.1004C11.4216 23.2045 9.68201 21.5691 8.30701 20.1941C6.93201 18.8191 5.83826 17.5845 5.02576 16.4904C4.21326 15.3962 3.64576 14.3912 3.32326 13.4754C3.00076 12.5595 2.83909 11.622 2.83826 10.6629C2.83826 8.70454 3.49451 7.06912 4.80701 5.75662C6.11951 4.44412 7.75492 3.78787 9.71326 3.78787C10.7966 3.78787 11.8278 4.01704 12.807 4.47537C13.7862 4.93371 14.6299 5.57954 15.3383 6.41287C16.0466 5.57954 16.8903 4.93371 17.8695 4.47537C18.8487 4.01704 19.8799 3.78787 20.9633 3.78787C22.9216 3.78787 24.557 4.44412 25.8695 5.75662C27.182 7.06912 27.8383 8.70454 27.8383 10.6629C27.8383 11.6212 27.677 12.5587 27.3545 13.4754C27.032 14.392 26.4641 15.397 25.6508 16.4904C24.8374 17.5837 23.7437 18.8183 22.3695 20.1941C20.9953 21.57 19.2558 23.2054 17.1508 25.1004L15.3383 26.7254Z" fill="white"/>
</svg>
